<?xml version="1.0" encoding="UTF-8"?>
<!DOCTYPE svg PUBLIC "-//W3C//DTD SVG 1.1//EN" "http://www.w3.org/Graphics/SVG/1.1/DTD/svg11.dtd">
<!-- Creator: CorelDRAW 2021 (64 Bit) -->
<svg xmlns="http://www.w3.org/2000/svg" xml:space="preserve" width="400px" height="400px" version="1.1" style="shape-rendering:geometricPrecision; text-rendering:geometricPrecision; image-rendering:optimizeQuality; fill-rule:evenodd; clip-rule:evenodd"
viewBox="0 0 400 400"
 xmlns:xlink="http://www.w3.org/1999/xlink"
 xmlns:xodm="http://www.corel.com/coreldraw/odm/2003">
 <defs>
  <style type="text/css">
   <![CDATA[
    .str0 {stroke:dimgray;stroke-width:1.6;stroke-miterlimit:22.9256}
    .fil2 {fill:#333333}
    .fil1 {fill:dimgray}
    .fil4 {fill:#CD6928}
    .fil0 {fill:white}
    .fil3 {fill:#CD6928;fill-rule:nonzero}
   ]]>
  </style>
 </defs>
 <g id="_0">
  <metadata id="CorelCorpID_0Corel-Layer"/>
  <polygon class="fil0" points="201.18,13.5 39.59,106.79 39.59,293.37 201.18,386.66 362.76,293.37 "/>
  <polygon class="fil1" points="237.13,56.14 343.81,117.73 343.81,181.13 305.91,181.13 305.91,139.61 269.95,118.85 234,181.13 168.35,181.13 132.4,118.85 96.45,139.61 96.45,181.13 58.54,181.13 58.54,117.73 165.22,56.14 165.22,99.9 201.18,162.17 "/>
  <polygon class="fil2" points="234,219.03 269.95,281.3 305.91,260.54 305.91,219.03 343.81,219.03 343.81,282.43 237.13,344.02 237.13,300.25 201.18,237.98 165.22,300.25 165.22,344.02 58.54,282.43 58.54,219.03 96.45,219.03 96.45,260.54 132.4,281.3 "/>
  <path class="fil3 str0" d="M63.58 182.75l13.57 0c2.69,0 4.69,0.11 6.01,0.33 1.33,0.23 2.5,0.69 3.55,1.4 1.04,0.71 1.91,1.65 2.6,2.82 0.7,1.18 1.04,2.51 1.04,3.97 0,1.58 -0.42,3.04 -1.28,4.36 -0.85,1.32 -2.01,2.31 -3.47,2.97 2.06,0.61 3.64,1.64 4.75,3.09 1.11,1.45 1.66,3.16 1.66,5.13 0,1.54 -0.35,3.04 -1.07,4.5 -0.72,1.47 -1.7,2.63 -2.95,3.51 -1.24,0.87 -2.77,1.41 -4.59,1.61 -1.14,0.12 -3.9,0.2 -8.26,0.23l-11.56 0 0 -33.92zm6.87 5.64l0 7.81 4.49 0c2.66,0 4.32,-0.04 4.97,-0.12 1.17,-0.13 2.09,-0.53 2.76,-1.2 0.67,-0.68 1,-1.55 1,-2.64 0,-1.05 -0.29,-1.9 -0.87,-2.55 -0.57,-0.66 -1.43,-1.05 -2.57,-1.19 -0.68,-0.08 -2.63,-0.11 -5.84,-0.11l-3.94 0zm0 13.45l0 9.1 6.35 0c2.47,0 4.04,-0.07 4.7,-0.21 1.02,-0.19 1.85,-0.64 2.49,-1.36 0.64,-0.72 0.96,-1.68 0.96,-2.89 0,-1.02 -0.24,-1.88 -0.74,-2.59 -0.49,-0.71 -1.21,-1.24 -2.14,-1.56 -0.93,-0.32 -2.96,-0.49 -6.08,-0.49l-5.54 0zm25.93 -1.93c0,-3.45 0.52,-6.36 1.55,-8.71 0.77,-1.73 1.83,-3.29 3.16,-4.66 1.34,-1.38 2.8,-2.4 4.39,-3.07 2.11,-0.89 4.55,-1.34 7.32,-1.34 5,0 9,1.56 12.01,4.66 3,3.11 4.5,7.43 4.5,12.97 0,5.48 -1.5,9.78 -4.47,12.88 -2.98,3.1 -6.97,4.65 -11.95,4.65 -5.05,0 -9.07,-1.54 -12.04,-4.63 -2.98,-3.08 -4.47,-7.33 -4.47,-12.75zm7.06 -0.22c0,3.84 0.89,6.75 2.67,8.74 1.77,1.99 4.03,2.98 6.76,2.98 2.74,0 4.99,-0.99 6.75,-2.95 1.75,-1.98 2.63,-4.93 2.63,-8.87 0,-3.89 -0.86,-6.8 -2.57,-8.71 -1.7,-1.92 -3.97,-2.87 -6.81,-2.87 -2.82,0 -5.1,0.97 -6.83,2.9 -1.73,1.94 -2.6,4.87 -2.6,8.78zm27.78 16.98l11.71 -17.69 -10.62 -16.23 8 0 6.68 10.1 6.68 -10.1 8.01 0 -10.64 16.24 11.68 17.68 -8.22 0 -7.52 -11.49 -7.53 11.49 -8.23 0zm48.2 0l0 -33.92 6.87 0 0 13.36 13.36 0 0 -13.36 6.87 0 0 33.92 -6.87 0 0 -14.83 -13.36 0 0 14.83 -6.87 0zm32.79 -16.76c0,-3.45 0.52,-6.36 1.56,-8.71 0.76,-1.73 1.82,-3.29 3.16,-4.66 1.33,-1.38 2.79,-2.4 4.38,-3.07 2.11,-0.89 4.55,-1.34 7.32,-1.34 5,0 9,1.56 12.01,4.66 3,3.11 4.5,7.43 4.5,12.97 0,5.48 -1.49,9.78 -4.47,12.88 -2.98,3.1 -6.97,4.65 -11.95,4.65 -5.04,0 -9.06,-1.54 -12.04,-4.63 -2.98,-3.08 -4.47,-7.33 -4.47,-12.75zm7.06 -0.22c0,3.84 0.89,6.75 2.67,8.74 1.78,1.99 4.03,2.98 6.77,2.98 2.74,0 4.98,-0.99 6.74,-2.95 1.75,-1.98 2.63,-4.93 2.63,-8.87 0,-3.89 -0.85,-6.8 -2.57,-8.71 -1.7,-1.92 -3.97,-2.87 -6.8,-2.87 -2.83,0 -5.11,0.97 -6.84,2.9 -1.73,1.94 -2.6,4.87 -2.6,8.78zm31.21 16.98l0 -33.92 6.65 0 13.96 22.73 0 -22.73 6.35 0 0 33.92 -6.86 0 -13.75 -22.3 0 22.3 -6.35 0zm34.22 0l0 -33.92 25.11 0 0 5.73 -18.24 0 0 7.53 16.96 0 0 5.74 -16.96 0 0 9.19 18.9 0 0 5.73 -25.77 0zm40.51 0l0 -14.28 -12.44 -19.64 8.03 0 8.03 13.43 7.8 -13.43 7.89 0 -12.44 19.69 0 14.23 -6.87 0z"/>
  <path class="fil4" d="M39.59 84.9l-18.95 32.83 0 164.7 18.95 32.82 142.63 82.35 37.91 0 142.63 -82.35 18.95 -32.82 0 -164.7 -18.95 -32.83 -142.63 -82.35 -37.91 0 -142.63 82.35zm161.59 -71.4l161.58 93.29 0 186.58 -161.58 93.29 -161.59 -93.29 0 -186.58 161.59 -93.29z"/>
 </g>
</svg>
